<svg width="512" height="512" fill="none" xmlns="http://www.w3.org/2000/svg"><path fill-rule="evenodd" clip-rule="evenodd" d="M24 223.795c0 16.812 9.618 31.377 23.652 38.492v206.378c0 11.526 9.344 20.87 20.87 20.87H451.13c11.526 0 20.87-9.344 20.87-20.87V218.23H109.905c-2.73-21.191-20.84-37.565-42.775-37.565-23.82 0-43.13 19.31-43.13 43.13zm43.06 23.655c13.02.057 23.622-10.799 23.68-24.246.058-13.446-10.45-24.393-23.47-24.449-13.02-.056-23.623 10.8-23.68 24.246-.058 13.447 10.45 24.393 23.47 24.449zm62.679-17.394h45.913l-25.043 39.652h-45.913l25.043-39.652zm282.435-.695h-45.913l-25.044 39.652h45.913l25.044-39.652zm-165.565 0h45.913l-25.044 39.652h-45.913l25.044-39.652zM221 297v131l106-64.126L221 297z" fill="#262529"/><path fill-rule="evenodd" clip-rule="evenodd" d="M31.25 168.679c-2.468-7.278 1.432-15.177 8.71-17.643L415.492 23.74c7.277-2.467 15.176 1.433 17.643 8.71l16.079 47.436-347.704 117.862c-7.877-10.38-20.346-17.083-34.38-17.083a42.962 42.962 0 00-28.247 10.536l-7.635-22.522zm75.977-27.224l43.483-14.739-10.989 45.593-43.482 14.739 10.988-45.593zM376.03 50.339l-43.483 14.74-10.988 45.592 43.482-14.74L376.03 50.34zM219.228 103.49l43.483-14.74-10.988 45.594-43.483 14.739 10.988-45.593z" fill="#262529"/><path d="M221 428V297l106 66.874L221 428z" fill="#EE1818"/></svg>