<svg width="512" height="512" viewBox="0 0 512 512" fill="none" xmlns="http://www.w3.org/2000/svg">
<path fill-rule="evenodd" clip-rule="evenodd" d="M39.2493 184.679C36.7825 177.401 40.6822 169.502 47.9594 167.036L423.493 39.7402C430.77 37.2734 438.669 41.1731 441.136 48.4503L457.215 95.8861L109.511 213.748C101.634 203.368 89.1653 196.665 75.1306 196.665C64.3268 196.665 54.4509 200.637 46.8836 207.201L39.2493 184.679ZM115.227 157.455L158.71 142.716L147.721 188.309L104.239 203.048L115.227 157.455ZM384.03 66.3386L340.547 81.0781L329.559 126.671L373.041 111.932L384.03 66.3386ZM227.228 119.49L270.711 104.751L259.723 150.344L216.24 165.083L227.228 119.49Z" fill="#3E3B47"/>
<path fill-rule="evenodd" clip-rule="evenodd" d="M32 239.795C32 256.607 41.6183 271.172 55.6522 278.287V484.665C55.6522 496.191 64.9958 505.535 76.5217 505.535H459.13C470.656 505.535 480 496.191 480 484.665V234.23H117.905C115.175 213.039 97.0649 196.665 75.1304 196.665C51.3102 196.665 32 215.975 32 239.795ZM75.0599 263.45C88.0802 263.507 98.6821 252.651 98.74 239.204C98.7979 225.758 88.2898 214.811 75.2696 214.755C62.2493 214.699 51.6474 225.555 51.5895 239.001C51.5316 252.448 62.0397 263.394 75.0599 263.45ZM137.739 246.056H183.652L158.609 285.708H112.696L137.739 246.056ZM420.174 245.361H374.261L349.217 285.013H395.13L420.174 245.361ZM254.609 245.361H300.522L275.478 285.013H229.565L254.609 245.361ZM229 313V444L335 379.874L229 313Z" fill="#3E3B47"/>
<path d="M229 444V313L335 379.874L229 444Z" fill="#EE1818"/>
</svg>
