<svg width="20" height="21" viewBox="0 0 20 21" fill="none" xmlns="http://www.w3.org/2000/svg">
  <path fill-rule="evenodd" clip-rule="evenodd"
    d="M9.99998 1.75C10.2707 1.75 10.5107 1.92433 10.5944 2.18182L12.4853 8H18.75C19.0239 8 19.2659 8.17835 19.347 8.43998C19.4281 8.70161 19.3293 8.98555 19.1034 9.14046L14.0246 12.6231L15.9828 18.4251C16.0697 18.6828 15.9801 18.9671 15.7611 19.1283C15.5422 19.2895 15.2441 19.2907 15.0239 19.1311L9.99998 15.4906L4.97609 19.1311C4.7559 19.2907 4.45781 19.2895 4.23882 19.1283C4.01984 18.9671 3.93022 18.6828 4.01718 18.4251L5.97537 12.6231L0.89653 9.14046C0.670631 8.98555 0.571914 8.70161 0.653 8.43998C0.734085 8.17835 0.976078 8 1.24999 8H7.51468L9.40559 2.18182C9.48927 1.92433 9.72923 1.75 9.99998 1.75ZM9.99998 4.39709L8.56313 8.81818C8.47945 9.07567 8.23948 9.25 7.96873 9.25H3.2666L7.07219 11.8595C7.30285 12.0177 7.40035 12.3099 7.31092 12.5749L5.82738 16.9705L9.63325 14.2127C9.85204 14.0541 10.1479 14.0541 10.3667 14.2127L14.1726 16.9705L12.6891 12.5749C12.5996 12.3099 12.6971 12.0177 12.9278 11.8595L16.7334 9.25H12.0312C11.7605 9.25 11.5205 9.07567 11.4368 8.81818L9.99998 4.39709Z"
    fill="#FF859B" />
</svg>