<svg width="20" height="20" viewBox="0 0 20 20" xmlns="http://www.w3.org/2000/svg">
  <path stroke="#FF859B" fill="#FF859B"
    d="M15.3161 18.2274C15.3373 18.2424 15.3627 18.2504 15.3887 18.2503H15.3898C15.4096 18.2503 15.4292 18.2455 15.4468 18.2364C15.4644 18.2273 15.4796 18.2142 15.4912 18.1981C15.5027 18.182 15.5103 18.1633 15.5132 18.1437C15.5161 18.1241 15.5143 18.104 15.508 18.0852L13.5498 12.2832L13.4288 11.9247L13.7409 11.7109L18.821 8.23037C18.843 8.21528 18.8597 8.19353 18.8684 8.16832C18.8772 8.14311 18.8777 8.11574 18.8698 8.09024C18.8619 8.06473 18.846 8.04243 18.8245 8.0266C18.803 8.01077 18.7768 8.00223 18.7501 8.00224H12.4852H12.1219L12.0097 7.65672L10.119 1.83614C10.1108 1.81102 10.0949 1.78912 10.0736 1.77359C10.0522 1.75806 10.0265 1.74969 10.0001 1.74969C9.97366 1.74969 9.94792 1.75806 9.92656 1.77359C9.9052 1.78912 9.88921 1.81133 9.88106 1.83645L7.99044 7.65481L7.87817 8.00029H7.51491H1.25094C1.22443 8.00045 1.19865 8.00904 1.17734 8.02482C1.15591 8.04068 1.14011 8.06299 1.13225 8.08847C1.1244 8.11395 1.1249 8.14128 1.13368 8.16646C1.14247 8.19164 1.15928 8.2135 1.18128 8.22856L6.25941 11.711L6.57135 11.9249L6.45036 12.2833L4.49088 18.0871C4.48238 18.1122 4.48209 18.1394 4.49005 18.1647C4.49801 18.19 4.51381 18.2121 4.53516 18.2278C4.55651 18.2435 4.58231 18.2521 4.60883 18.2522C4.63535 18.2523 4.6613 18.2438 4.68276 18.2283L9.70659 14.5861L10.0001 14.3733L10.2935 14.5861L15.3161 18.2274ZM15.3161 18.2274C15.3158 18.2272 15.3163 18.2275 15.3161 18.2274Z" />
</svg>